<svg xmlns="http://www.w3.org/2000/svg" viewBox="0 0 600 400" width="600" height="400">
  <defs>
    <linearGradient id="g" x1="0%" y1="0%" x2="100%" y2="100%">
      <stop offset="0%" style="stop-color:#0d1f2d"/>
      <stop offset="100%" style="stop-color:#81ecff22"/>
    </linearGradient>
    <filter id="blur"><feGaussianBlur stdDeviation="40"/></filter>
  </defs>
  <rect width="600" height="400" fill="#0d1f2d"/>
  <circle cx="500" cy="80" r="180" fill="#81ecff" opacity="0.08" filter="url(#blur)"/>
  <circle cx="100" cy="320" r="120" fill="#81ecff" opacity="0.05" filter="url(#blur)"/>
  <!-- grid lines -->
  <g stroke="#81ecff" stroke-width="0.5" opacity="0.08">
    <line x1="0" y1="0" x2="0" y2="400"/><line x1="40" y1="0" x2="40" y2="400"/><line x1="80" y1="0" x2="80" y2="400"/><line x1="120" y1="0" x2="120" y2="400"/><line x1="160" y1="0" x2="160" y2="400"/><line x1="200" y1="0" x2="200" y2="400"/><line x1="240" y1="0" x2="240" y2="400"/><line x1="280" y1="0" x2="280" y2="400"/><line x1="320" y1="0" x2="320" y2="400"/><line x1="360" y1="0" x2="360" y2="400"/><line x1="400" y1="0" x2="400" y2="400"/><line x1="440" y1="0" x2="440" y2="400"/><line x1="480" y1="0" x2="480" y2="400"/><line x1="520" y1="0" x2="520" y2="400"/><line x1="560" y1="0" x2="560" y2="400"/>
    <line x1="0" y1="0" x2="600" y2="0"/><line x1="0" y1="40" x2="600" y2="40"/><line x1="0" y1="80" x2="600" y2="80"/><line x1="0" y1="120" x2="600" y2="120"/><line x1="0" y1="160" x2="600" y2="160"/><line x1="0" y1="200" x2="600" y2="200"/><line x1="0" y1="240" x2="600" y2="240"/><line x1="0" y1="280" x2="600" y2="280"/><line x1="0" y1="320" x2="600" y2="320"/><line x1="0" y1="360" x2="600" y2="360"/>
  </g>
  <text x="300" y="195" text-anchor="middle" font-size="72" opacity="0.15" fill="#81ecff">✦</text>
  <text x="300" y="230" text-anchor="middle" font-family="monospace" font-size="26" font-weight="bold" fill="#81ecff" opacity="0.9">lumii</text>
  <rect x="240" y="248" width="120" height="2" fill="#81ecff" opacity="0.3" rx="1"/>
</svg>